<svg width="1542" height="159" viewBox="0 0 1542 159" fill="none" xmlns="http://www.w3.org/2000/svg">
<g clip-path="url(#clip0_102_19)">
<path d="M262.608 158.744V7.75659H287.785V70.6639H325.526V95.8365H350.703V121.009H325.526V95.8365H287.785V158.744H262.608ZM325.526 70.6639V45.4912H350.703V70.6639H325.526ZM350.703 45.4912V20.343H375.88V45.5156H350.703V45.4912ZM350.703 158.719V120.985H375.88V158.719H350.703Z" fill="#7525A0"/>
<path d="M413.62 133.571H388.444V32.9293H413.62V133.571ZM514.303 32.9293H413.62V7.75659H514.303V32.9293ZM413.62 158.744V133.571H514.303V158.744H413.62ZM514.303 133.571V32.9293H539.479V133.571H514.303Z" fill="#7525A0"/>
<path d="M552.043 158.744V7.75659H652.726V32.9293H677.903V133.571H652.726V32.9293H577.22V133.571H652.726V158.744H552.043Z" fill="#7525A0"/>
<path d="M715.644 133.571H690.467V32.9293H715.644V133.571ZM816.327 32.9049H715.644V7.75659H816.327V32.9293V32.9049ZM715.644 158.719V133.547H816.327V158.719H715.644ZM816.327 133.547V32.9293H841.504V133.571H816.327V133.547Z" fill="#7525A0"/>
<path d="M141.871 99.2271H102.178V59.5412H141.871V99.2271ZM181.564 39.686V59.5412H141.871V39.686H181.564ZM181.564 119.058H141.871V99.2271H181.564V119.058ZM181.564 39.686V0H221.256V39.686H181.564ZM181.564 158.744V119.058H221.256V158.744H181.564Z" fill="#7525A0"/>
<path d="M922.768 0V39.686H883.075V0H922.768ZM922.768 119.058V158.744H883.075V119.058H922.768ZM922.768 39.686H962.46V59.5168H922.768V39.686ZM922.768 119.058V99.2027H962.46V119.058H922.768ZM962.46 59.5168H1002.15V99.2027H962.46V59.5168Z" fill="#7525A0"/>
<path d="M25.6769 0H0.5V158.744H25.6769V0ZM25.6769 158.744H0.5L25.6769 0V158.744ZM25.6769 158.744V0L0.5 158.744H25.6769Z" fill="#7525A0"/>
<path d="M1045.34 141.058H1035V17H1055.69V79.0291H1076.38V99.7136H1097.06V120.398H1076.38V99.7136H1055.69V141.058H1045.34ZM1076.35 79.0291V58.3446H1097.04V79.0291H1076.35ZM1097.04 58.3446V37.6601H1117.73V58.3446H1097.04ZM1107.38 141.058H1097.04V120.374H1117.73V141.058H1107.38Z" fill="#7525A0"/>
<path d="M1138.39 141.058H1128.05V17H1148.74V141.058H1138.39Z" fill="#7525A0"/>
<path d="M1179.74 120.374H1159.05V48.0024H1179.74V120.374ZM1231.44 141.058H1179.74V120.374H1221.09V48.0024H1241.78V141.034H1231.44V141.058Z" fill="#7525A0"/>
<path d="M1324.49 141.058H1252.1V17H1272.79V79.0291H1293.48V99.7136H1272.79V120.398H1334.83V141.083H1324.49V141.058ZM1334.83 79.0291H1293.48V58.3446H1334.83V79.0291ZM1334.83 120.374V79.0291H1355.52V120.374H1334.83Z" fill="#7525A0"/>
<path d="M1438.22 68.6869H1365.84V48.0024H1438.22V68.6869ZM1448.56 141.058H1386.52V120.374H1365.84V99.6892H1386.52V79.0047H1438.22V68.6625H1458.91V141.034H1448.56V141.058ZM1427.88 120.374H1438.22V99.6892H1386.52V120.374H1427.88Z" fill="#7525A0"/>
<path d="M1489.92 79.0292H1469.23V58.3447H1489.92V79.0292ZM1510.6 141.058H1469.25V120.374H1520.95V141.058H1510.6ZM1531.29 58.3447H1489.94V37.6602H1541.64V58.3447H1531.29ZM1520.95 99.6893H1489.94V79.0048H1520.95V99.6893ZM1520.95 120.374V99.6893H1541.64V120.374H1520.95Z" fill="#7525A0"/>
</g>
<defs>
<clipPath id="clip0_102_19">
<rect width="1542" height="159" fill="white"/>
</clipPath>
</defs>
</svg>
