<svg width="1542" height="159" viewBox="0 0 1542 159" fill="none" xmlns="http://www.w3.org/2000/svg">
<g clip-path="url(#clip0_102_2)">
<mask id="path-1-inside-1_102_2" fill="white">
<path d="M262.608 158.744V7.75671H287.785V70.664H325.526V95.8366H350.703V121.009H325.526V95.8366H287.785V158.744H262.608ZM325.526 70.664V45.4913H350.703V70.664H325.526ZM350.703 45.4913V20.3431H375.88V45.5157H350.703V45.4913ZM350.703 158.719V120.985H375.88V158.719H350.703Z"/>
</mask>
<path d="M262.608 158.744V7.75671H287.785V70.664H325.526V95.8366H350.703V121.009H325.526V95.8366H287.785V158.744H262.608ZM325.526 70.664V45.4913H350.703V70.664H325.526ZM350.703 45.4913V20.3431H375.88V45.5157H350.703V45.4913ZM350.703 158.719V120.985H375.88V158.719H350.703Z" fill="url(#paint0_linear_102_2)"/>
<path d="M262.608 158.744H231.608V189.744H262.608V158.744ZM262.608 7.75671V-23.2433H231.608V7.75671H262.608ZM287.785 7.75671H318.785V-23.2433H287.785V7.75671ZM287.785 70.664H256.785V101.664H287.785V70.664ZM325.526 70.664H356.526V39.664H325.526V70.664ZM325.526 95.8366H294.526V126.837H325.526V95.8366ZM350.703 95.8366H381.703V64.8366H350.703V95.8366ZM350.703 121.009V152.009H381.703V121.009H350.703ZM325.526 121.009H294.526V152.009H325.526V121.009ZM325.526 95.8366H356.526V64.8366H325.526V95.8366ZM287.785 95.8366V64.8366H256.785V95.8366H287.785ZM287.785 158.744V189.744H318.785V158.744H287.785ZM325.526 70.664H294.526V101.664H325.526V70.664ZM325.526 45.4913V14.4913H294.526V45.4913H325.526ZM350.703 45.4913H381.703V14.4913H350.703V45.4913ZM350.703 70.664V101.664H381.703V70.664H350.703ZM350.703 20.3431V-10.6569H319.703V20.3431H350.703ZM375.88 20.3431H406.88V-10.6569H375.88V20.3431ZM375.88 45.5157V76.5157H406.88V45.5157H375.88ZM350.703 45.5157H319.703V76.5157H350.703V45.5157ZM350.703 158.719H319.703V189.719H350.703V158.719ZM350.703 120.985V89.985H319.703V120.985H350.703ZM375.88 120.985H406.88V89.985H375.88V120.985ZM375.88 158.719V189.719H406.88V158.719H375.88ZM293.608 158.744V7.75671H231.608V158.744H293.608ZM262.608 38.7567H287.785V-23.2433H262.608V38.7567ZM256.785 7.75671V70.664H318.785V7.75671H256.785ZM287.785 101.664H325.526V39.664H287.785V101.664ZM294.526 70.664V95.8366H356.526V70.664H294.526ZM325.526 126.837H350.703V64.8366H325.526V126.837ZM319.703 95.8366V121.009H381.703V95.8366H319.703ZM350.703 90.009H325.526V152.009H350.703V90.009ZM356.526 121.009V95.8366H294.526V121.009H356.526ZM325.526 64.8366H287.785V126.837H325.526V64.8366ZM256.785 95.8366V158.744H318.785V95.8366H256.785ZM287.785 127.744H262.608V189.744H287.785V127.744ZM356.526 70.664V45.4913H294.526V70.664H356.526ZM325.526 76.4913H350.703V14.4913H325.526V76.4913ZM319.703 45.4913V70.664H381.703V45.4913H319.703ZM350.703 39.664H325.526V101.664H350.703V39.664ZM381.703 45.4913V20.3431H319.703V45.4913H381.703ZM350.703 51.3431H375.88V-10.6569H350.703V51.3431ZM344.88 20.3431V45.5157H406.88V20.3431H344.88ZM375.88 14.5157H350.703V76.5157H375.88V14.5157ZM381.703 45.5157V45.4913H319.703V45.5157H381.703ZM381.703 158.719V120.985H319.703V158.719H381.703ZM350.703 151.985H375.88V89.985H350.703V151.985ZM344.88 120.985V158.719H406.88V120.985H344.88ZM375.88 127.719H350.703V189.719H375.88V127.719Z" fill="#7525A0" mask="url(#path-1-inside-1_102_2)"/>
<mask id="path-3-inside-2_102_2" fill="white">
<path d="M413.62 133.571H388.444V32.9294H413.62V133.571ZM514.303 32.9294H413.62V7.75671H514.303V32.9294ZM413.62 158.744V133.571H514.303V158.744H413.62ZM514.303 133.571V32.9294H539.479V133.571H514.303Z"/>
</mask>
<path d="M413.62 133.571H388.444V32.9294H413.62V133.571ZM514.303 32.9294H413.62V7.75671H514.303V32.9294ZM413.62 158.744V133.571H514.303V158.744H413.62ZM514.303 133.571V32.9294H539.479V133.571H514.303Z" fill="url(#paint1_linear_102_2)"/>
<path d="M413.62 133.571V164.571H444.62V133.571H413.62ZM388.444 133.571H357.444V164.571H388.444V133.571ZM388.444 32.9294V1.92941H357.444V32.9294H388.444ZM413.62 32.9294H444.62V1.92941H413.62V32.9294ZM514.303 32.9294V63.9294H545.303V32.9294H514.303ZM413.62 32.9294H382.62V63.9294H413.62V32.9294ZM413.62 7.75671V-23.2433H382.62V7.75671H413.62ZM514.303 7.75671H545.303V-23.2433H514.303V7.75671ZM413.62 158.744H382.62V189.744H413.62V158.744ZM413.62 133.571V102.571H382.62V133.571H413.62ZM514.303 133.571H545.303V102.571H514.303V133.571ZM514.303 158.744V189.744H545.303V158.744H514.303ZM514.303 133.571H483.303V164.571H514.303V133.571ZM514.303 32.9294V1.92941H483.303V32.9294H514.303ZM539.479 32.9294H570.479V1.92941H539.479V32.9294ZM539.479 133.571V164.571H570.479V133.571H539.479ZM413.62 102.571H388.444V164.571H413.62V102.571ZM419.444 133.571V32.9294H357.444V133.571H419.444ZM388.444 63.9294H413.62V1.92941H388.444V63.9294ZM382.62 32.9294V133.571H444.62V32.9294H382.62ZM514.303 1.92941H413.62V63.9294H514.303V1.92941ZM444.62 32.9294V7.75671H382.62V32.9294H444.62ZM413.62 38.7567H514.303V-23.2433H413.62V38.7567ZM483.303 7.75671V32.9294H545.303V7.75671H483.303ZM444.62 158.744V133.571H382.62V158.744H444.62ZM413.62 164.571H514.303V102.571H413.62V164.571ZM483.303 133.571V158.744H545.303V133.571H483.303ZM514.303 127.744H413.62V189.744H514.303V127.744ZM545.303 133.571V32.9294H483.303V133.571H545.303ZM514.303 63.9294H539.479V1.92941H514.303V63.9294ZM508.479 32.9294V133.571H570.479V32.9294H508.479ZM539.479 102.571H514.303V164.571H539.479V102.571Z" fill="#7525A0" mask="url(#path-3-inside-2_102_2)"/>
<mask id="path-5-inside-3_102_2" fill="white">
<path d="M552.043 158.744V7.75671H652.726V32.9294H677.903V133.571H652.726V32.9294H577.22V133.571H652.726V158.744H552.043Z"/>
</mask>
<path d="M552.043 158.744V7.75671H652.726V32.9294H677.903V133.571H652.726V32.9294H577.22V133.571H652.726V158.744H552.043Z" fill="url(#paint2_linear_102_2)"/>
<path d="M552.043 158.744H521.043V189.744H552.043V158.744ZM552.043 7.75671V-23.2433H521.043V7.75671H552.043ZM652.726 7.75671H683.726V-23.2433H652.726V7.75671ZM677.903 32.9294H708.903V1.92941H677.903V32.9294ZM677.903 133.571V164.571H708.903V133.571H677.903ZM577.22 32.9294V1.92941H546.22V32.9294H577.22ZM577.22 133.571H546.22V164.571H577.22V133.571ZM652.726 158.744V189.744H683.726V158.744H652.726ZM583.043 158.744V7.75671H521.043V158.744H583.043ZM552.043 38.7567H652.726V-23.2433H552.043V38.7567ZM621.726 7.75671V32.9294H683.726V7.75671H621.726ZM652.726 63.9294H677.903V1.92941H652.726V63.9294ZM646.903 32.9294V133.571H708.903V32.9294H646.903ZM677.903 102.571H652.726V164.571H677.903V102.571ZM683.726 133.571V32.9294H621.726V133.571H683.726ZM652.726 1.92941H577.22V63.9294H652.726V1.92941ZM546.22 32.9294V133.571H608.22V32.9294H546.22ZM577.22 164.571H652.726V102.571H577.22V164.571ZM621.726 133.571V158.744H683.726V133.571H621.726ZM652.726 127.744H552.043V189.744H652.726V127.744Z" fill="#7525A0" mask="url(#path-5-inside-3_102_2)"/>
<mask id="path-7-inside-4_102_2" fill="white">
<path d="M715.644 133.571H690.467V32.9294H715.644V133.571ZM816.327 32.905H715.644V7.75671H816.327V32.9294V32.905ZM715.644 158.719V133.547H816.327V158.719H715.644ZM816.327 133.547V32.9294H841.504V133.571H816.327V133.547Z"/>
</mask>
<path d="M715.644 133.571H690.467V32.9294H715.644V133.571ZM816.327 32.905H715.644V7.75671H816.327V32.9294V32.905ZM715.644 158.719V133.547H816.327V158.719H715.644ZM816.327 133.547V32.9294H841.504V133.571H816.327V133.547Z" fill="url(#paint3_linear_102_2)"/>
<path d="M715.644 133.571V164.571H746.644V133.571H715.644ZM690.467 133.571H659.467V164.571H690.467V133.571ZM690.467 32.9294V1.92941H659.467V32.9294H690.467ZM715.644 32.9294H746.644V1.92941H715.644V32.9294ZM816.327 32.905H847.327V1.90501H816.327V32.905ZM715.644 32.905H684.644V63.905H715.644V32.905ZM715.644 7.75671V-23.2433H684.644V7.75671H715.644ZM816.327 7.75671H847.327V-23.2433H816.327V7.75671ZM715.644 158.719H684.644V189.719H715.644V158.719ZM715.644 133.547V102.547H684.644V133.547H715.644ZM816.327 133.547H847.327V102.547H816.327V133.547ZM816.327 158.719V189.719H847.327V158.719H816.327ZM816.327 32.9294V1.92941H785.327V32.9294H816.327ZM841.504 32.9294H872.504V1.92941H841.504V32.9294ZM841.504 133.571V164.571H872.504V133.571H841.504ZM816.327 133.571H785.327V164.571H816.327V133.571ZM715.644 102.571H690.467V164.571H715.644V102.571ZM721.467 133.571V32.9294H659.467V133.571H721.467ZM690.467 63.9294H715.644V1.92941H690.467V63.9294ZM684.644 32.9294V133.571H746.644V32.9294H684.644ZM816.327 1.90501H715.644V63.905H816.327V1.90501ZM746.644 32.905V7.75671H684.644V32.905H746.644ZM715.644 38.7567H816.327V-23.2433H715.644V38.7567ZM785.327 7.75671V32.9294H847.327V7.75671H785.327ZM847.327 32.9294V32.905H785.327V32.9294H847.327ZM746.644 158.719V133.547H684.644V158.719H746.644ZM715.644 164.547H816.327V102.547H715.644V164.547ZM785.327 133.547V158.719H847.327V133.547H785.327ZM816.327 127.719H715.644V189.719H816.327V127.719ZM847.327 133.547V32.9294H785.327V133.547H847.327ZM816.327 63.9294H841.504V1.92941H816.327V63.9294ZM810.504 32.9294V133.571H872.504V32.9294H810.504ZM841.504 102.571H816.327V164.571H841.504V102.571ZM847.327 133.571V133.547H785.327V133.571H847.327Z" fill="#7525A0" mask="url(#path-7-inside-4_102_2)"/>
<path d="M197.064 134.558H205.756V143.244H197.064V134.558ZM197.064 24.186V15.5H205.756V24.186H197.064ZM126.371 83.7271H117.678V75.0412H126.371V83.7271Z" fill="url(#paint4_linear_102_2)" stroke="#7525A0" stroke-width="31"/>
<path d="M977.96 83.7027V75.0168H986.65V83.7027H977.96ZM907.268 24.186H898.575V15.5H907.268V24.186ZM907.268 134.558V143.244H898.575V134.558H907.268Z" fill="url(#paint5_linear_102_2)" stroke="#7525A0" stroke-width="31"/>
<mask id="path-11-inside-5_102_2" fill="white">
<path d="M25.6769 0H0.5V158.744H25.6769V0ZM25.6769 158.744H0.5L25.6769 0V158.744ZM25.6769 158.744V0L0.5 158.744H25.6769Z"/>
</mask>
<path d="M25.6769 0H0.5V158.744H25.6769V0ZM25.6769 158.744H0.5L25.6769 0V158.744ZM25.6769 158.744V0L0.5 158.744H25.6769Z" fill="white"/>
<path d="M25.6769 0H56.6769V-31H25.6769V0ZM0.5 0V-31H-30.5V0H0.5ZM0.5 158.744H-30.5V189.744H0.5V158.744ZM25.6769 158.744V189.744H56.6769V158.744H25.6769ZM25.6769 158.744V189.744H56.6769V158.744H25.6769ZM0.5 158.744L-30.1173 153.888L-35.8041 189.744H0.5V158.744ZM25.6769 0H56.6769L-4.94041 -4.85593L25.6769 0ZM25.6769 158.744V189.744H56.6769V158.744H25.6769ZM25.6769 0H56.6769L-4.94041 -4.85593L25.6769 0ZM0.5 158.744L-30.1173 153.888L-35.8041 189.744H0.5V158.744ZM25.6769 -31H0.5V31H25.6769V-31ZM-30.5 0V158.744H31.5V0H-30.5ZM0.5 189.744H25.6769V127.744H0.5V189.744ZM56.6769 158.744V0H-5.3231V158.744H56.6769ZM25.6769 127.744H0.5V189.744H25.6769V127.744ZM31.1173 163.6L56.2942 4.85593L-4.94041 -4.85593L-30.1173 153.888L31.1173 163.6ZM-5.3231 0V158.744H56.6769V0H-5.3231ZM56.6769 158.744V0H-5.3231V158.744H56.6769ZM-4.94041 -4.85593L-30.1173 153.888L31.1173 163.6L56.2942 4.85593L-4.94041 -4.85593ZM0.5 189.744H25.6769V127.744H0.5V189.744Z" fill="#7525A0" mask="url(#path-11-inside-5_102_2)"/>
<mask id="path-13-inside-6_102_2" fill="white">
<path d="M1045.34 141.058H1035V17H1055.69V79.0291H1076.38V99.7136H1097.06V120.398H1076.38V99.7136H1055.69V141.058H1045.34ZM1076.35 79.0291V58.3446H1097.04V79.0291H1076.35ZM1097.04 58.3446V37.6601H1117.73V58.3446H1097.04ZM1107.38 141.058H1097.04V120.374H1117.73V141.058H1107.38Z"/>
</mask>
<path d="M1045.34 141.058H1035V17H1055.69V79.0291H1076.38V99.7136H1097.06V120.398H1076.38V99.7136H1055.69V141.058H1045.34ZM1076.35 79.0291V58.3446H1097.04V79.0291H1076.35ZM1097.04 58.3446V37.6601H1117.73V58.3446H1097.04ZM1107.38 141.058H1097.04V120.374H1117.73V141.058H1107.38Z" fill="white"/>
<path d="M1035 141.058H1004V172.058H1035V141.058ZM1035 17V-14H1004V17H1035ZM1055.69 17H1086.69V-14H1055.69V17ZM1055.69 79.0291H1024.69V110.029H1055.69V79.0291ZM1076.38 79.0291H1107.38V48.0291H1076.38V79.0291ZM1076.38 99.7136H1045.38V130.714H1076.38V99.7136ZM1097.06 99.7136H1128.06V68.7136H1097.06V99.7136ZM1097.06 120.398V151.398H1128.06V120.398H1097.06ZM1076.38 120.398H1045.38V151.398H1076.38V120.398ZM1076.38 99.7136H1107.38V68.7136H1076.38V99.7136ZM1055.69 99.7136V68.7136H1024.69V99.7136H1055.69ZM1055.69 141.058V172.058H1086.69V141.058H1055.69ZM1076.35 79.0291H1045.35V110.029H1076.35V79.0291ZM1076.35 58.3446V27.3446H1045.35V58.3446H1076.35ZM1097.04 58.3446H1128.04V27.3446H1097.04V58.3446ZM1097.04 79.0291V110.029H1128.04V79.0291H1097.04ZM1097.04 58.3446H1066.04V89.3446H1097.04V58.3446ZM1097.04 37.6601V6.6601H1066.04V37.6601H1097.04ZM1117.73 37.6601H1148.73V6.6601H1117.73V37.6601ZM1117.73 58.3446V89.3446H1148.73V58.3446H1117.73ZM1097.04 141.058H1066.04V172.058H1097.04V141.058ZM1097.04 120.374V89.374H1066.04V120.374H1097.04ZM1117.73 120.374H1148.73V89.374H1117.73V120.374ZM1117.73 141.058V172.058H1148.73V141.058H1117.73ZM1045.34 110.058H1035V172.058H1045.34V110.058ZM1066 141.058V17H1004V141.058H1066ZM1035 48H1055.69V-14H1035V48ZM1024.69 17V79.0291H1086.69V17H1024.69ZM1055.69 110.029H1076.38V48.0291H1055.69V110.029ZM1045.38 79.0291V99.7136H1107.38V79.0291H1045.38ZM1076.38 130.714H1097.06V68.7136H1076.38V130.714ZM1066.06 99.7136V120.398H1128.06V99.7136H1066.06ZM1097.06 89.398H1076.38V151.398H1097.06V89.398ZM1107.38 120.398V99.7136H1045.38V120.398H1107.38ZM1076.38 68.7136H1055.69V130.714H1076.38V68.7136ZM1024.69 99.7136V141.058H1086.69V99.7136H1024.69ZM1055.69 110.058H1045.34V172.058H1055.69V110.058ZM1107.35 79.0291V58.3446H1045.35V79.0291H1107.35ZM1076.35 89.3446H1097.04V27.3446H1076.35V89.3446ZM1066.04 58.3446V79.0291H1128.04V58.3446H1066.04ZM1097.04 48.0291H1076.35V110.029H1097.04V48.0291ZM1128.04 58.3446V37.6601H1066.04V58.3446H1128.04ZM1097.04 68.6601H1117.73V6.6601H1097.04V68.6601ZM1086.73 37.6601V58.3446H1148.73V37.6601H1086.73ZM1117.73 27.3446H1097.04V89.3446H1117.73V27.3446ZM1107.38 110.058H1097.04V172.058H1107.38V110.058ZM1128.04 141.058V120.374H1066.04V141.058H1128.04ZM1097.04 151.374H1117.73V89.374H1097.04V151.374ZM1086.73 120.374V141.058H1148.73V120.374H1086.73ZM1117.73 110.058H1107.38V172.058H1117.73V110.058Z" fill="#7525A0" mask="url(#path-13-inside-6_102_2)"/>
<mask id="path-15-inside-7_102_2" fill="white">
<path d="M1138.39 141.058H1128.05V17H1148.74V141.058H1138.39Z"/>
</mask>
<path d="M1138.39 141.058H1128.05V17H1148.74V141.058H1138.39Z" fill="white"/>
<path d="M1128.05 141.058H1097.05V172.058H1128.05V141.058ZM1128.05 17V-14H1097.05V17H1128.05ZM1148.74 17H1179.74V-14H1148.74V17ZM1148.74 141.058V172.058H1179.74V141.058H1148.74ZM1138.39 110.058H1128.05V172.058H1138.39V110.058ZM1159.05 141.058V17H1097.05V141.058H1159.05ZM1128.05 48H1148.74V-14H1128.05V48ZM1117.74 17V141.058H1179.74V17H1117.74ZM1148.74 110.058H1138.39V172.058H1148.74V110.058Z" fill="#7525A0" mask="url(#path-15-inside-7_102_2)"/>
<mask id="path-17-inside-8_102_2" fill="white">
<path d="M1179.74 120.374H1159.05V48.0024H1179.74V120.374ZM1231.44 141.058H1179.74V120.374H1221.09V48.0024H1241.78V141.034H1231.44V141.058Z"/>
</mask>
<path d="M1179.74 120.374H1159.05V48.0024H1179.74V120.374ZM1231.44 141.058H1179.74V120.374H1221.09V48.0024H1241.78V141.034H1231.44V141.058Z" fill="white"/>
<path d="M1179.74 120.374V151.374H1210.74V120.374H1179.74ZM1159.05 120.374H1128.05V151.374H1159.05V120.374ZM1159.05 48.0024V17.0024H1128.05V48.0024H1159.05ZM1179.74 48.0024H1210.74V17.0024H1179.74V48.0024ZM1231.44 141.058V172.058H1262.44V141.058H1231.44ZM1179.74 141.058H1148.74V172.058H1179.74V141.058ZM1179.74 120.374V89.374H1148.74V120.374H1179.74ZM1221.09 120.374V151.374H1252.09V120.374H1221.09ZM1221.09 48.0024V17.0024H1190.09V48.0024H1221.09ZM1241.78 48.0024H1272.78V17.0024H1241.78V48.0024ZM1241.78 141.034V172.034H1272.78V141.034H1241.78ZM1231.44 141.034V110.034H1200.44V141.034H1231.44ZM1179.74 89.374H1159.05V151.374H1179.74V89.374ZM1190.05 120.374V48.0024H1128.05V120.374H1190.05ZM1159.05 79.0024H1179.74V17.0024H1159.05V79.0024ZM1148.74 48.0024V120.374H1210.74V48.0024H1148.74ZM1231.44 110.058H1179.74V172.058H1231.44V110.058ZM1210.74 141.058V120.374H1148.74V141.058H1210.74ZM1179.74 151.374H1221.09V89.374H1179.74V151.374ZM1252.09 120.374V48.0024H1190.09V120.374H1252.09ZM1221.09 79.0024H1241.78V17.0024H1221.09V79.0024ZM1210.78 48.0024V141.034H1272.78V48.0024H1210.78ZM1241.78 110.034H1231.44V172.034H1241.78V110.034ZM1200.44 141.034V141.058H1262.44V141.034H1200.44Z" fill="#7525A0" mask="url(#path-17-inside-8_102_2)"/>
<mask id="path-19-inside-9_102_2" fill="white">
<path d="M1324.49 141.058H1252.1V17H1272.79V79.0291H1293.48V99.7136H1272.79V120.398H1334.83V141.083H1324.49V141.058ZM1334.83 79.0291H1293.48V58.3446H1334.83V79.0291ZM1334.83 120.374V79.0291H1355.52V120.374H1334.83Z"/>
</mask>
<path d="M1324.49 141.058H1252.1V17H1272.79V79.0291H1293.48V99.7136H1272.79V120.398H1334.83V141.083H1324.49V141.058ZM1334.83 79.0291H1293.48V58.3446H1334.83V79.0291ZM1334.83 120.374V79.0291H1355.52V120.374H1334.83Z" fill="white"/>
<path d="M1324.49 141.058H1355.49V110.058H1324.49V141.058ZM1252.1 141.058H1221.1V172.058H1252.1V141.058ZM1252.1 17V-14H1221.1V17H1252.1ZM1272.79 17H1303.79V-14H1272.79V17ZM1272.79 79.0291H1241.79V110.029H1272.79V79.0291ZM1293.48 79.0291H1324.48V48.0291H1293.48V79.0291ZM1293.48 99.7136V130.714H1324.48V99.7136H1293.48ZM1272.79 99.7136V68.7136H1241.79V99.7136H1272.79ZM1272.79 120.398H1241.79V151.398H1272.79V120.398ZM1334.83 120.398H1365.83V89.398H1334.83V120.398ZM1334.83 141.083V172.083H1365.83V141.083H1334.83ZM1324.49 141.083H1293.49V172.083H1324.49V141.083ZM1334.83 79.0291V110.029H1365.83V79.0291H1334.83ZM1293.48 79.0291H1262.48V110.029H1293.48V79.0291ZM1293.48 58.3446V27.3446H1262.48V58.3446H1293.48ZM1334.83 58.3446H1365.83V27.3446H1334.83V58.3446ZM1334.83 120.374H1303.83V151.374H1334.83V120.374ZM1334.83 79.0291V48.0291H1303.83V79.0291H1334.83ZM1355.52 79.0291H1386.52V48.0291H1355.52V79.0291ZM1355.52 120.374V151.374H1386.52V120.374H1355.52ZM1324.49 110.058H1252.1V172.058H1324.49V110.058ZM1283.1 141.058V17H1221.1V141.058H1283.1ZM1252.1 48H1272.79V-14H1252.1V48ZM1241.79 17V79.0291H1303.79V17H1241.79ZM1272.79 110.029H1293.48V48.0291H1272.79V110.029ZM1262.48 79.0291V99.7136H1324.48V79.0291H1262.48ZM1293.48 68.7136H1272.79V130.714H1293.48V68.7136ZM1241.79 99.7136V120.398H1303.79V99.7136H1241.79ZM1272.79 151.398H1334.83V89.398H1272.79V151.398ZM1303.83 120.398V141.083H1365.83V120.398H1303.83ZM1334.83 110.083H1324.49V172.083H1334.83V110.083ZM1355.49 141.083V141.058H1293.49V141.083H1355.49ZM1334.83 48.0291H1293.48V110.029H1334.83V48.0291ZM1324.48 79.0291V58.3446H1262.48V79.0291H1324.48ZM1293.48 89.3446H1334.83V27.3446H1293.48V89.3446ZM1303.83 58.3446V79.0291H1365.83V58.3446H1303.83ZM1365.83 120.374V79.0291H1303.83V120.374H1365.83ZM1334.83 110.029H1355.52V48.0291H1334.83V110.029ZM1324.52 79.0291V120.374H1386.52V79.0291H1324.52ZM1355.52 89.374H1334.83V151.374H1355.52V89.374Z" fill="#7525A0" mask="url(#path-19-inside-9_102_2)"/>
<mask id="path-21-inside-10_102_2" fill="white">
<path d="M1438.22 68.6869H1365.84V48.0024H1438.22V68.6869ZM1448.56 141.058H1386.52V120.374H1365.84V99.6892H1386.52V79.0047H1438.22V68.6625H1458.91V141.034H1448.56V141.058ZM1427.88 120.374H1438.22V99.6892H1386.52V120.374H1427.88Z"/>
</mask>
<path d="M1438.22 68.6869H1365.84V48.0024H1438.22V68.6869ZM1448.56 141.058H1386.52V120.374H1365.84V99.6892H1386.52V79.0047H1438.22V68.6625H1458.91V141.034H1448.56V141.058ZM1427.88 120.374H1438.22V99.6892H1386.52V120.374H1427.88Z" fill="white"/>
<path d="M1438.22 68.6869V99.6869H1469.22V68.6869H1438.22ZM1365.84 68.6869H1334.84V99.6869H1365.84V68.6869ZM1365.84 48.0024V17.0024H1334.84V48.0024H1365.84ZM1438.22 48.0024H1469.22V17.0024H1438.22V48.0024ZM1448.56 141.058V172.058H1479.56V141.058H1448.56ZM1386.52 141.058H1355.52V172.058H1386.52V141.058ZM1386.52 120.374H1417.52V89.374H1386.52V120.374ZM1365.84 120.374H1334.84V151.374H1365.84V120.374ZM1365.84 99.6892V68.6892H1334.84V99.6892H1365.84ZM1386.52 99.6892V130.689H1417.52V99.6892H1386.52ZM1386.52 79.0047V48.0047H1355.52V79.0047H1386.52ZM1438.22 79.0047V110.005H1469.22V79.0047H1438.22ZM1438.22 68.6625V37.6625H1407.22V68.6625H1438.22ZM1458.91 68.6625H1489.91V37.6625H1458.91V68.6625ZM1458.91 141.034V172.034H1489.91V141.034H1458.91ZM1448.56 141.034V110.034H1417.56V141.034H1448.56ZM1438.22 120.374V151.374H1469.22V120.374H1438.22ZM1438.22 99.6892H1469.22V68.6892H1438.22V99.6892ZM1386.52 99.6892V68.6892H1355.52V99.6892H1386.52ZM1386.52 120.374H1355.52V151.374H1386.52V120.374ZM1438.22 37.6869H1365.84V99.6869H1438.22V37.6869ZM1396.84 68.6869V48.0024H1334.84V68.6869H1396.84ZM1365.84 79.0024H1438.22V17.0024H1365.84V79.0024ZM1407.22 48.0024V68.6869H1469.22V48.0024H1407.22ZM1448.56 110.058H1386.52V172.058H1448.56V110.058ZM1417.52 141.058V120.374H1355.52V141.058H1417.52ZM1386.52 89.374H1365.84V151.374H1386.52V89.374ZM1396.84 120.374V99.6892H1334.84V120.374H1396.84ZM1365.84 130.689H1386.52V68.6892H1365.84V130.689ZM1417.52 99.6892V79.0047H1355.52V99.6892H1417.52ZM1386.52 110.005H1438.22V48.0047H1386.52V110.005ZM1469.22 79.0047V68.6625H1407.22V79.0047H1469.22ZM1438.22 99.6625H1458.91V37.6625H1438.22V99.6625ZM1427.91 68.6625V141.034H1489.91V68.6625H1427.91ZM1458.91 110.034H1448.56V172.034H1458.91V110.034ZM1417.56 141.034V141.058H1479.56V141.034H1417.56ZM1427.88 151.374H1438.22V89.374H1427.88V151.374ZM1469.22 120.374V99.6892H1407.22V120.374H1469.22ZM1438.22 68.6892H1386.52V130.689H1438.22V68.6892ZM1355.52 99.6892V120.374H1417.52V99.6892H1355.52ZM1386.52 151.374H1427.88V89.374H1386.52V151.374Z" fill="#7525A0" mask="url(#path-21-inside-10_102_2)"/>
<mask id="path-23-inside-11_102_2" fill="white">
<path d="M1489.92 79.0291H1469.23V58.3446H1489.92V79.0291ZM1510.6 141.058H1469.25V120.374H1520.95V141.058H1510.6ZM1531.29 58.3446H1489.94V37.6601H1541.64V58.3446H1531.29ZM1520.95 99.6892H1489.94V79.0047H1520.95V99.6892ZM1520.95 120.374V99.6892H1541.64V120.374H1520.95Z"/>
</mask>
<path d="M1489.92 79.0291H1469.23V58.3446H1489.92V79.0291ZM1510.6 141.058H1469.25V120.374H1520.95V141.058H1510.6ZM1531.29 58.3446H1489.94V37.6601H1541.64V58.3446H1531.29ZM1520.95 99.6892H1489.94V79.0047H1520.95V99.6892ZM1520.95 120.374V99.6892H1541.64V120.374H1520.95Z" fill="white"/>
<path d="M1489.92 79.0291V110.029H1520.92V79.0291H1489.92ZM1469.23 79.0291H1438.23V110.029H1469.23V79.0291ZM1469.23 58.3446V27.3446H1438.23V58.3446H1469.23ZM1489.92 58.3446H1520.92V27.3446H1489.92V58.3446ZM1469.25 141.058H1438.25V172.058H1469.25V141.058ZM1469.25 120.374V89.374H1438.25V120.374H1469.25ZM1520.95 120.374H1551.95V89.374H1520.95V120.374ZM1520.95 141.058V172.058H1551.95V141.058H1520.95ZM1489.94 58.3446H1458.94V89.3446H1489.94V58.3446ZM1489.94 37.6601V6.6601H1458.94V37.6601H1489.94ZM1541.64 37.6601H1572.64V6.6601H1541.64V37.6601ZM1541.64 58.3446V89.3446H1572.64V58.3446H1541.64ZM1520.95 99.6892V130.689H1551.95V99.6892H1520.95ZM1489.94 99.6892H1458.94V130.689H1489.94V99.6892ZM1489.94 79.0047V48.0047H1458.94V79.0047H1489.94ZM1520.95 79.0047H1551.95V48.0047H1520.95V79.0047ZM1520.95 120.374H1489.95V151.374H1520.95V120.374ZM1520.95 99.6892V68.6892H1489.95V99.6892H1520.95ZM1541.64 99.6892H1572.64V68.6892H1541.64V99.6892ZM1541.64 120.374V151.374H1572.64V120.374H1541.64ZM1489.92 48.0291H1469.23V110.029H1489.92V48.0291ZM1500.23 79.0291V58.3446H1438.23V79.0291H1500.23ZM1469.23 89.3446H1489.92V27.3446H1469.23V89.3446ZM1458.92 58.3446V79.0291H1520.92V58.3446H1458.92ZM1510.6 110.058H1469.25V172.058H1510.6V110.058ZM1500.25 141.058V120.374H1438.25V141.058H1500.25ZM1469.25 151.374H1520.95V89.374H1469.25V151.374ZM1489.95 120.374V141.058H1551.95V120.374H1489.95ZM1520.95 110.058H1510.6V172.058H1520.95V110.058ZM1531.29 27.3446H1489.94V89.3446H1531.29V27.3446ZM1520.94 58.3446V37.6601H1458.94V58.3446H1520.94ZM1489.94 68.6601H1541.64V6.6601H1489.94V68.6601ZM1510.64 37.6601V58.3446H1572.64V37.6601H1510.64ZM1541.64 27.3446H1531.29V89.3446H1541.64V27.3446ZM1520.95 68.6892H1489.94V130.689H1520.95V68.6892ZM1520.94 99.6892V79.0047H1458.94V99.6892H1520.94ZM1489.94 110.005H1520.95V48.0047H1489.94V110.005ZM1489.95 79.0047V99.6892H1551.95V79.0047H1489.95ZM1551.95 120.374V99.6892H1489.95V120.374H1551.95ZM1520.95 130.689H1541.64V68.6892H1520.95V130.689ZM1510.64 99.6892V120.374H1572.64V99.6892H1510.64ZM1541.64 89.374H1520.95V151.374H1541.64V89.374Z" fill="#7525A0" mask="url(#path-23-inside-11_102_2)"/>
</g>
<defs>
<linearGradient id="paint0_linear_102_2" x1="917.177" y1="13.5002" x2="375.677" y2="142.5" gradientUnits="userSpaceOnUse">
<stop stop-color="#BD0DB6"/>
<stop offset="0.494792" stop-color="#A654B4"/>
<stop offset="1" stop-color="#5E106A"/>
</linearGradient>
<linearGradient id="paint1_linear_102_2" x1="917.177" y1="13.5002" x2="375.677" y2="142.5" gradientUnits="userSpaceOnUse">
<stop stop-color="#BD0DB6"/>
<stop offset="0.494792" stop-color="#A654B4"/>
<stop offset="1" stop-color="#5E106A"/>
</linearGradient>
<linearGradient id="paint2_linear_102_2" x1="917.177" y1="13.5002" x2="375.677" y2="142.5" gradientUnits="userSpaceOnUse">
<stop stop-color="#BD0DB6"/>
<stop offset="0.494792" stop-color="#A654B4"/>
<stop offset="1" stop-color="#5E106A"/>
</linearGradient>
<linearGradient id="paint3_linear_102_2" x1="917.177" y1="13.5002" x2="375.677" y2="142.5" gradientUnits="userSpaceOnUse">
<stop stop-color="#BD0DB6"/>
<stop offset="0.494792" stop-color="#A654B4"/>
<stop offset="1" stop-color="#5E106A"/>
</linearGradient>
<linearGradient id="paint4_linear_102_2" x1="917.177" y1="13.5002" x2="375.677" y2="142.5" gradientUnits="userSpaceOnUse">
<stop stop-color="#BD0DB6"/>
<stop offset="0.494792" stop-color="#A654B4"/>
<stop offset="1" stop-color="#5E106A"/>
</linearGradient>
<linearGradient id="paint5_linear_102_2" x1="917.177" y1="13.5002" x2="375.677" y2="142.5" gradientUnits="userSpaceOnUse">
<stop stop-color="#BD0DB6"/>
<stop offset="0.494792" stop-color="#A654B4"/>
<stop offset="1" stop-color="#5E106A"/>
</linearGradient>
<clipPath id="clip0_102_2">
<rect width="1542" height="159" fill="white"/>
</clipPath>
</defs>
</svg>
